<svg xmlns="http://www.w3.org/2000/svg" width="30" height="22" viewBox="0 0 30 22">
  <defs>
    <clipPath id="flagClip">
      <path
        d="M4,0.286L26,0.286A4,4 0,0 1,30 4.286L30,17.714A4,4 0,0 1,26 21.714L4,21.714A4,4 0,0 1,0 17.714L0,4.286A4,4 0,0 1,4 0.286z" />
    </clipPath>
  </defs>
  <path
    d="M4,0.286L26,0.286A4,4 0,0 1,30 4.286L30,17.714A4,4 0,0 1,26 21.714L4,21.714A4,4 0,0 1,0 17.714L0,4.286A4,4 0,0 1,4 0.286z"
    fill="#ffffff" />
  <g clip-path="url(#flagClip)">
    <path d="M0,7.143H30V0H0V7.143Z" fill="#E63426" fill-rule="evenodd" />
    <path d="M0,14.286H30V7.143H0V14.286Z" fill="#FFEB1F" fill-rule="evenodd" />
    <path d="M0,21.429H30V14.286H0V21.429Z" fill="#058C3F" fill-rule="evenodd" />
  </g>
</svg>
