<svg xmlns="http://www.w3.org/2000/svg" width="30" height="22" viewBox="0 0 30 22">
  <defs>
    <clipPath id="flagClip">
      <path d="M4,0L26,0A4,4 0,0 1,30 4L30,17.429A4,4 0,0 1,26 21.429L4,21.429A4,4 0,0 1,0 17.429L0,4A4,4 0,0 1,4 0z" />
    </clipPath>
  </defs>
  <path d="M4,0L26,0A4,4 0,0 1,30 4L30,17.429A4,4 0,0 1,26 21.429L4,21.429A4,4 0,0 1,0 17.429L0,4A4,4 0,0 1,4 0z"
    fill="#ffffff" />
  <g clip-path="url(#flagClip)">
    <path d="M0,14.286H30V7.143H0V14.286Z" fill="#063191" fill-rule="evenodd" />
    <path d="M0,21.428H30V14.286H0V21.428Z" fill="#E2213B" fill-rule="evenodd" />
    <path
      d="M15.714,9.286C15.714,9.68 15.394,10 14.999,10C14.605,10 14.285,9.68 14.285,9.286C14.285,8.891 14.605,8.572 14.999,8.572C15.394,8.572 15.714,8.891 15.714,9.286ZM12.857,10C12.857,10.394 12.537,10.714 12.142,10.714C11.748,10.714 11.428,10.394 11.428,10C11.428,9.606 11.748,9.286 12.142,9.286C12.537,9.286 12.857,9.606 12.857,10ZM17.856,10.714C18.251,10.714 18.57,10.394 18.57,10C18.57,9.606 18.251,9.286 17.856,9.286C17.462,9.286 17.142,9.606 17.142,10C17.142,10.394 17.462,10.714 17.856,10.714ZM11.428,12.143C11.428,12.538 11.108,12.857 10.714,12.857C10.319,12.857 10,12.538 10,12.143C10,11.748 10.319,11.429 10.714,11.429C11.108,11.429 11.428,11.748 11.428,12.143ZM19.285,12.857C19.679,12.857 19.999,12.538 19.999,12.143C19.999,11.748 19.679,11.429 19.285,11.429C18.89,11.429 18.57,11.748 18.57,12.143C18.57,12.538 18.89,12.857 19.285,12.857Z"
      fill="#ffffff" fill-rule="evenodd" />
    <path d="M0,7.143H30V0H0V7.143Z" fill="#FFD044" fill-rule="evenodd" />
  </g>
</svg>