<svg xmlns="http://www.w3.org/2000/svg" width="56" height="56" viewBox="0 0 56 56">
  <defs>
    <clipPath id="flagClip">
      <path
        d="M4,8.5L52,8.5A3.5,3.5 0,0 1,55.5 12L55.5,44A3.5,3.5 0,0 1,52 47.5L4,47.5A3.5,3.5 0,0 1,0.5 44L0.5,12A3.5,3.5 0,0 1,4 8.5z" />
    </clipPath>
  </defs>
  <path
    d="M4,8.5L52,8.5A3.5,3.5 0,0 1,55.5 12L55.5,44A3.5,3.5 0,0 1,52 47.5L4,47.5A3.5,3.5 0,0 1,0.5 44L0.5,12A3.5,3.5 0,0 1,4 8.5z"
    fill="#ffffff" stroke="#F5F5F5" stroke-width="1" />
  <g clip-path="url(#flagClip)">
    <path d="M0,21.333H56V8H0V21.333Z" fill="#88BBE8" fill-rule="evenodd" />
    <path d="M0,48H56V34.667H0V48Z" fill="#88BBE8" fill-rule="evenodd" />
    <circle cx="28" cy="28" r="4.667" fill="#F4B32E" stroke="#DB7A2C" stroke-width="1.33333" />
  </g>
</svg>