<svg xmlns="http://www.w3.org/2000/svg" width="103" height="28" fill="none" viewBox="0 0 103 28"><path fill="url(#a)" d="M18.378.002c-4.914.037-8.925 3.954-9.092 8.88h-.08V27.54c3.791 0 7.19-2.342 8.552-5.89h-.248a5.26 5.26 0 0 1-4.7-2.89 5.29 5.29 0 0 1 .455-5.509 5.25 5.25 0 0 1 5.108-2.078V9.186h.072c5.035-.034 9.1-4.135 9.103-9.184z"/><path fill="url(#b)" d="M17.121 19.226 15.55 17.76a1.937 1.937 0 0 1-.102-2.732l1.717 1.6 4.64-3.958a1.94 1.94 0 0 1 2.726.21z"/><path fill="url(#c)" d="M9.146.002C4.124.042.074 4.129.073 9.156h18.188V.002z"/><path fill="url(#d)" d="M12.198 16.02c.03-.002.034-.252.096-.614.037-.215.1-.47.186-.733a5.36 5.36 0 0 1 1.16-1.948 5 5 0 0 1 .367-.353q.265-.228.54-.412a5.2 5.2 0 0 1 1.682-.74c.3-.072.715-.149 1.249-.146a5 5 0 0 1 .85.072q-.012-1.956 0-1.973c.748-1.037 3.063-.704 3.65-.92.12-.044.06-.682.06-1.03a8.84 8.84 0 0 0-3.73-7.221H9.003c-.316.007-.784.071-.978.08a8.84 8.84 0 0 0-3.617 7.14q0 1.005.652 1.947h4.124v5.91c1.11.578 2.036.885 2.804.934.072.005.143.012.211.007"/><path fill="url(#e)" d="M18.378.002C13.464.039 9.453 3.95 9.286 8.868l-.08 9.29c0-4.958 4.014-8.976 8.964-8.976h.275c5.038-.035 9.104-4.135 9.103-9.18z"/><path fill="#1c1c1e" d="M74.047 10.142a6.1 6.1 0 0 1 2.435.488 6.4 6.4 0 0 1 1.982 1.339 6.3 6.3 0 0 1 1.332 1.987c.33.771.495 1.603.49 2.442a6 6 0 0 1-.49 2.424 6.5 6.5 0 0 1-1.332 1.989 6.2 6.2 0 0 1-1.983 1.35 6.27 6.27 0 0 1-4.869 0 6.2 6.2 0 0 1-1.963-1.35 6.5 6.5 0 0 1-1.332-1.989 6 6 0 0 1-.49-2.424 6.1 6.1 0 0 1 .49-2.442 6.27 6.27 0 0 1 3.295-3.326 6.1 6.1 0 0 1 2.435-.488m-15.791 6.777c0 1.904 1.037 2.677 2.419 2.677s2.423-.789 2.423-2.677v-6.545h3.18l-.004 6.824c0 3.758-2.642 5.378-5.603 5.378s-5.614-1.62-5.614-5.378V10.37h3.199zm37.86-6.928a4.35 4.35 0 0 1 3.553 1.63 1.317 1.317 0 0 1 1.319-1.31h1.82l-.008 11.884h-3.131V20.88a4.38 4.38 0 0 1-3.553 1.617c-3.284 0-5.768-2.684-5.768-6.25 0-3.567 2.484-6.256 5.768-6.256m-50.579-4.96a3.21 3.21 0 0 1-3.207 3.212h-2.127v10.59a3.44 3.44 0 0 1-3.432 3.439V8.243h-5.319A3.21 3.21 0 0 1 34.66 5.03zm6.537 4.96a4.9 4.9 0 0 1 1.667.255l-.476 3.18a5.2 5.2 0 0 0-1.94-.394c-1.485 0-2.506.91-2.506 2.68v3.275a3.204 3.204 0 0 1-3.204 3.208V10.31h3.106v1.3c.749-1.12 1.891-1.62 3.353-1.62m36.139 0a4.9 4.9 0 0 1 1.67.255l-.48 3.18a5.2 5.2 0 0 0-1.938-.394c-1.485 0-2.506.91-2.506 2.68v3.275a3.204 3.204 0 0 1-3.202 3.208V10.31h3.108v1.3c.749-1.12 1.887-1.62 3.348-1.62m-14.166 3.091a3.16 3.16 0 0 0-2.324.957 3.23 3.23 0 0 0-.979 2.362c-.002.43.086.854.256 1.248.177.4.422.766.723 1.083a3.18 3.18 0 0 0 2.324.98c.432.002.86-.083 1.26-.248a3 3 0 0 0 1.065-.732 3.31 3.31 0 0 0 .722-3.603 3.295 3.295 0 0 0-3.047-2.043zm22.638-.11c-1.836 0-3.076 1.456-3.076 3.274 0 1.815 1.185 3.272 3.076 3.272 1.89 0 3.075-1.398 3.075-3.272s-1.24-3.274-3.075-3.274"/><defs><linearGradient id="a" x1="9.201" x2="27.548" y1="27.545" y2="27.545" gradientUnits="userSpaceOnUse"><stop stop-color="#6300ff"/><stop offset="1" stop-color="#00f"/></linearGradient><linearGradient id="b" x1="14.935" x2="24.526" y1="19.222" y2="19.222" gradientUnits="userSpaceOnUse"><stop stop-color="#6300ff"/><stop offset="1" stop-color="#00f"/></linearGradient><linearGradient id="c" x1=".072" x2="18.259" y1="9.149" y2="9.149" gradientUnits="userSpaceOnUse"><stop stop-color="#6300ff"/><stop offset="1" stop-color="#00f"/></linearGradient><linearGradient id="e" x1="9.201" x2="27.548" y1="18.153" y2="18.153" gradientUnits="userSpaceOnUse"><stop stop-color="#6300ff"/><stop offset="1" stop-color="#00f"/></linearGradient><radialGradient id="d" cx="0" cy="0" r="1" gradientTransform="matrix(8.85795 0 0 8.0421 13.664 8.223)" gradientUnits="userSpaceOnUse"><stop stop-color="#030238"/><stop offset="1" stop-color="#4500ff"/></radialGradient></defs></svg>