<svg xmlns="http://www.w3.org/2000/svg" width="30" height="22" viewBox="0 0 30 22">
  <defs>
    <clipPath id="flagClip">
      <path
        d="M4,0.786L26,0.786A3.5,3.5 0,0 1,29.5 4.286L29.5,17.714A3.5,3.5 0,0 1,26 21.214L4,21.214A3.5,3.5 0,0 1,0.5 17.714L0.5,4.286A3.5,3.5 0,0 1,4 0.786z" />
    </clipPath>
  </defs>
  <path
    d="M4,0.786L26,0.786A3.5,3.5 0,0 1,29.5 4.286L29.5,17.714A3.5,3.5 0,0 1,26 21.214L4,21.214A3.5,3.5 0,0 1,0.5 17.714L0.5,4.286A3.5,3.5 0,0 1,4 0.786z"
    fill="#ffffff" stroke="#F5F5F5" stroke-width="1" />
  <g clip-path="url(#flagClip)">
    <rect x="20" y="0.286" width="10" height="21.429" fill="#E82438" />
    <path d="M0,21.714H10V0.286H0V21.714Z" fill="#E82438" fill-rule="evenodd" />
  </g>
</svg>