<svg xmlns="http://www.w3.org/2000/svg" width="30" height="31" viewBox="0 0 30 31">
  <path d="M30,15.091C29.388,34.918 0.61,34.914 0,15.091C0.613,-4.737 29.39,-4.732 30,15.091Z" fill="#446996" />
  <path
    d="M15.001,0.091C11.37,0.091 7.862,1.409 5.129,3.799C2.396,6.189 0.622,9.49 0.138,13.088C2.714,30.284 27.293,30.273 29.864,13.088C29.379,9.49 27.605,6.189 24.872,3.799C22.139,1.409 18.632,0.091 15.001,0.091Z"
    fill="#4381F0" />
  <path
    d="M17.295,0.227C9.571,-1.168 2.232,4.04 0.516,11.423H5.551C6.036,11.423 6.517,11.324 6.963,11.132C7.409,10.94 7.811,10.659 8.145,10.307L9.638,8.729C9.971,8.377 10.373,8.096 10.819,7.904C11.266,7.712 11.746,7.613 12.231,7.613C12.978,7.613 13.706,7.379 14.312,6.944C14.919,6.509 15.374,5.895 15.614,5.188L17.295,0.227Z"
    fill="#12D57D" />
  <path
    d="M30,15.091C30.001,13.125 29.616,11.179 28.865,9.363C27.284,10.008 25.065,11.292 22.945,13.824C22.616,14.219 22.205,14.537 21.74,14.756C21.275,14.975 20.767,15.089 20.253,15.091C18.093,14.87 16.16,16.351 16.15,18.586C16.15,19.513 16.518,20.402 17.174,21.057C17.829,21.712 18.718,22.081 19.645,22.081H28.271C29.409,19.927 30.002,17.527 30,15.091Z"
    fill="#0E9F6E" />
  <path
    d="M28.865,9.363C27.285,10.008 25.065,11.292 22.945,13.824C22.116,14.834 20.912,15.175 19.646,15.091C15.026,15.233 15.026,21.938 19.646,22.081H25.393C27.945,19.717 29.402,16.537 29.864,13.089C29.693,11.809 29.358,10.556 28.865,9.363Z"
    fill="#12D57D" />
  <path
    d="M15,30.091C15.928,30.09 16.989,29.85 17.901,29.679L17.1,27.642C16.914,27.03 16.686,26.41 16.172,26.029C15.658,25.648 14.885,25.525 14.246,25.525C12.546,25.538 12.061,24.277 11.081,23.148C10.801,22.816 10.514,22.562 10.121,22.379C9.727,22.197 9,22.081 8.566,22.081H1.729C3.001,24.498 4.91,26.522 7.249,27.934C9.588,29.345 12.268,30.091 15,30.091Z"
    fill="#0E9F6E" />
  <path
    d="M12.195,24.477L11.074,23.149C10.794,22.818 10.445,22.551 10.051,22.369C9.657,22.186 9.229,22.091 8.795,22.091H5.03C6.519,23.475 8.274,24.54 10.189,25.223C12.103,25.906 14.137,26.192 16.165,26.064C14.75,25.073 13.585,26.077 12.195,24.477Z"
    fill="#12D57D" />
</svg>