<svg xmlns="http://www.w3.org/2000/svg" width="38" height="24" fill="none" viewBox="0 0 38 24"><path fill="#c2c2cb" d="m28.922 15.961-1.099-1.062a1.446 1.446 0 0 1-.073-1.982l1.202 1.161 3.246-2.874a1.32 1.32 0 0 1 1.905.152l-5.181 4.608zM27.745 2h-4.402C19.831 2.031 17 4.998 17 8.65h6.002c.108-3.116 2.06-5.702 4.743-6.65"/><path fill="#c2c2cb" d="M23.386 13.06c.922-2.605 3.415-4.532 6.265-4.532h.193C33.09 8.507 35.837 5.55 36.003 2h-6.056c-3.548.031-6.422 2.948-6.558 6.65v4.41z"/><path fill="#c2c2cb" d="M29.796 10.114V8.919h-.145c-3.389 0-6.25 2.88-6.265 6.296V22c2.65 0 5.027-1.7 5.98-4.277h-.172c-1.389 0-2.66-.811-3.285-2.1a3.97 3.97 0 0 1 .317-4c.823-1.165 2.202-1.75 3.573-1.509zM5.251 11.073q.617.11 1.045.649.43.54.43 1.221 0 .583-.309 1.056-.297.462-.869.737-.571.264-1.33.264H1.158V7.355h2.915q.781 0 1.342.264.562.264.847.715.286.44.286.99 0 .66-.352 1.1a2.05 2.05 0 0 1-.946.649m-2.838-.506h1.551q.617 0 .957-.275.352-.285.352-.814 0-.517-.352-.803-.34-.297-.957-.297h-1.55zm1.694 3.41q.64 0 1.001-.308.363-.307.363-.858 0-.561-.385-.891-.384-.33-1.023-.33h-1.65v2.387zm9.437-5.038-3.718 8.91H8.528l1.232-2.948-2.387-5.962H8.77l1.705 4.62 1.771-4.62z"/></svg>