<svg xmlns="http://www.w3.org/2000/svg" width="30" height="22" viewBox="0 0 30 22">
  <defs>
    <clipPath id="flagClip">
      <path
        d="M4,0.786L26,0.786A3.5,3.5 0,0 1,29.5 4.286L29.5,17.714A3.5,3.5 0,0 1,26 21.214L4,21.214A3.5,3.5 0,0 1,0.5 17.714L0.5,4.286A3.5,3.5 0,0 1,4 0.786z" />
    </clipPath>
  </defs>
  <path
    d="M4,0.786L26,0.786A3.5,3.5 0,0 1,29.5 4.286L29.5,17.714A3.5,3.5 0,0 1,26 21.214L4,21.214A3.5,3.5 0,0 1,0.5 17.714L0.5,4.286A3.5,3.5 0,0 1,4 0.786z"
    fill="#ffffff" stroke="#F5F5F5" stroke-width="1" />
  <g clip-path="url(#flagClip)">
    <rect x="20" y="0.286" width="10" height="21.429" fill="#E3283E" />
    <path d="M0,21.714H10V0.286H0V21.714Z" fill="#128A60" fill-rule="evenodd" />
    <path
      d="M14.237,11.606L14.906,10.452L14.237,11.606ZM12.899,13.912L13.568,12.759L12.899,13.912ZM17.256,13.818L17.974,14.941H17.974L17.256,13.818ZM15.414,13.413L14.291,14.131L15.414,13.413ZM15.819,11.571L16.537,12.694V12.694L15.819,11.571ZM14.81,10.286C14.81,8.813 13.616,7.619 12.143,7.619V10.286H14.81ZM14.906,10.452C14.844,10.416 14.81,10.355 14.81,10.286H12.143C12.143,11.34 12.714,12.263 13.568,12.759L14.906,10.452ZM15.875,14.097C16.614,12.823 16.18,11.191 14.906,10.452L13.568,12.759L15.875,14.097ZM12.23,15.065C13.504,15.804 15.136,15.371 15.875,14.097L13.568,12.759H13.568L12.23,15.065ZM9.476,10.286C9.476,12.332 10.59,14.114 12.23,15.065L13.568,12.759C12.715,12.264 12.143,11.341 12.143,10.286H9.476ZM12.143,7.619C10.67,7.619 9.476,8.813 9.476,10.286H12.143V7.619ZM20.524,10.286C20.524,8.813 19.33,7.619 17.857,7.619V10.286H17.857H20.524ZM17.974,14.941C19.501,13.964 20.524,12.246 20.524,10.286H17.857C17.857,11.297 17.332,12.186 16.537,12.694L17.974,14.941ZM14.291,14.131C15.084,15.372 16.733,15.734 17.974,14.941L16.537,12.694L14.291,14.131ZM15.101,10.448C13.86,11.241 13.497,12.891 14.291,14.131L16.537,12.694L15.101,10.448ZM15.191,10.286C15.191,10.352 15.159,10.411 15.101,10.448L16.537,12.694C17.333,12.186 17.857,11.296 17.857,10.286H15.191ZM17.857,7.619C16.384,7.619 15.191,8.813 15.191,10.286H17.857V7.619Z"
      fill="#8C9157" />
    <ellipse cx="15" cy="9.571" rx="1.429" ry="2.143" fill="#C59262" />
  </g>
</svg>